<svg preserveAspectRatio="xMidYMid slice" viewBox="0 0 24 24" fill="none" xmlns="http://www.w3.org/2000/svg">
<path d="M16.3654 6.41553C14.4754 6.41553 13.6766 7.3174 12.3604 7.3174C11.0108 7.3174 9.98147 6.42209 8.34366 6.42209C6.74053 6.42209 5.031 7.40084 3.94538 9.06818C2.421 11.4194 2.67975 15.8477 5.14866 19.6202C6.03178 20.9707 7.21116 22.4852 8.75803 22.5016H8.78616C10.1305 22.5016 10.5299 21.6213 12.3801 21.611H12.4082C14.2307 21.611 14.5963 22.4965 15.9351 22.4965H15.9632C17.5101 22.4801 18.7527 20.8019 19.6358 19.4566C20.2715 18.4891 20.5077 18.0035 20.9952 16.909C17.4238 15.5533 16.8501 10.4904 20.3821 8.54928C19.304 7.19928 17.789 6.4174 16.3607 6.4174L16.3654 6.41553Z" fill="black"/>
<path d="M15.9491 1.5C14.8241 1.57641 13.5116 2.29266 12.7428 3.22781C12.0453 4.07531 11.4716 5.3325 11.6966 6.55172H11.7866C12.9847 6.55172 14.211 5.83031 14.9272 4.90594C15.6172 4.02609 16.1403 2.77922 15.9491 1.5Z" fill="black"/>
</svg>
